<?xml version="1.0" encoding="UTF-8" standalone="no"?>
<!-- Creator: CorelDRAW X7 -->

<svg
   xmlns:dc="http://purl.org/dc/elements/1.1/"
   xmlns:cc="http://creativecommons.org/ns#"
   xmlns:rdf="http://www.w3.org/1999/02/22-rdf-syntax-ns#"
   xmlns:svg="http://www.w3.org/2000/svg"
   xmlns="http://www.w3.org/2000/svg"
   xmlns:sodipodi="http://sodipodi.sourceforge.net/DTD/sodipodi-0.dtd"
   xmlns:inkscape="http://www.inkscape.org/namespaces/inkscape"
   xml:space="preserve"
   width="1060"
   height="200"
   version="1.1"
   style="clip-rule:evenodd;fill-rule:evenodd;image-rendering:optimizeQuality;shape-rendering:geometricPrecision;text-rendering:geometricPrecision"
   viewBox="0 0 2436415.3 67037"
   id="svg146"
   sodipodi:docname="logo-jfrn.svg"
   inkscape:version="0.92.5 (2060ec1f9f, 2020-04-08)"><metadata
   id="metadata150"><rdf:RDF><cc:Work
       rdf:about=""><dc:format>image/svg+xml</dc:format><dc:type
         rdf:resource="http://purl.org/dc/dcmitype/StillImage" /><dc:title></dc:title></cc:Work></rdf:RDF></metadata><sodipodi:namedview
   pagecolor="#ffffff"
   bordercolor="#666666"
   borderopacity="1"
   objecttolerance="10"
   gridtolerance="10"
   guidetolerance="10"
   inkscape:pageopacity="0"
   inkscape:pageshadow="2"
   inkscape:window-width="1920"
   inkscape:window-height="1025"
   id="namedview148"
   showgrid="false"
   inkscape:zoom="1.28"
   inkscape:cx="427.08116"
   inkscape:cy="128.36278"
   inkscape:window-x="0"
   inkscape:window-y="0"
   inkscape:window-maximized="1"
   inkscape:current-layer="svg146"
   units="px"
   showguides="true"
   inkscape:guide-bbox="true" />
 <defs
   id="defs24">
  <style
   type="text/css"
   id="style2">
   <![CDATA[
    .str0 {stroke:#7C7B7B;stroke-width:1084.76}
    .fil4 {fill:none}
    .fil6 {fill:black;fill-rule:nonzero}
    .fil7 {fill:#303030;fill-rule:nonzero}
    .fil5 {fill:#828282;fill-rule:nonzero}
    .fil0 {fill:url(#id0)}
    .fil3 {fill:url(#id1)}
    .fil2 {fill:url(#id2)}
    .fil1 {fill:url(#id3)}
   ]]>
  </style>
  <linearGradient
   id="id0"
   gradientUnits="userSpaceOnUse"
   x1="141082"
   y1="33343.301"
   x2="160536"
   y2="53870.199">
   <stop
   offset="0"
   style="stop-opacity:1; stop-color:#26A722"
   id="stop4" />
   <stop
   offset="1"
   style="stop-opacity:1; stop-color:#A3D999"
   id="stop6" />
  </linearGradient>
  <linearGradient
   id="id1"
   gradientUnits="userSpaceOnUse"
   x1="129227"
   y1="42941.199"
   x2="109692"
   y2="63472.301">
   <stop
   offset="0"
   style="stop-opacity:1; stop-color:#A0A0A0"
   id="stop9" />
   <stop
   offset="1"
   style="stop-opacity:1; stop-color:#E4E4E4"
   id="stop11" />
  </linearGradient>
  <linearGradient
   id="id2"
   gradientUnits="userSpaceOnUse"
   x1="128970"
   y1="33694"
   x2="109516"
   y2="13167">
   <stop
   offset="0"
   style="stop-opacity:1; stop-color:#1C32E7"
   id="stop14" />
   <stop
   offset="1"
   style="stop-opacity:1; stop-color:#8591F1"
   id="stop16" />
  </linearGradient>
  <linearGradient
   id="id3"
   gradientUnits="userSpaceOnUse"
   x1="140825"
   y1="24096"
   x2="160360"
   y2="3564.96">
   <stop
   offset="0"
   style="stop-opacity:1; stop-color:#EEEEEE"
   id="stop19" />
   <stop
   offset="1"
   style="stop-opacity:1; stop-color:#BCBCBC"
   id="stop21" />
  </linearGradient>
 </defs>
 <g
   id="Camada_x0020_1"
   transform="matrix(6.857422,0,0,6.857422,-714397.15,-195382.18)">
  <metadata
   id="CorelCorpID_0Corel-Layer" />
  <g
   id="_2033930351008">
   <g
   id="g35">
    <path
   class="fil0"
   d="m 165345,29831 -1844,1735 h -8787 c -6617,868 -9980,4339 -10305,10305 v 7810 l -8136,7702 V 40244 c 326,-5966 3797,-9437 10306,-10305 z"
   id="path27"
   style="fill:url(#id0)"
   inkscape:connector-curvature="0" />
    <path
   class="fil1"
   d="m 165128,27661 -7594,-7268 h -9003 c -6617,-868 -9980,-4339 -10305,-10305 V 2061 L 136057,0 v 17247 c 325,5967 3796,9438 10305,10306 z"
   id="path29"
   style="fill:url(#id3)"
   inkscape:connector-curvature="0" />
    <path
   class="fil2"
   d="m 104707,37207 1844,-1736 h 8787 c 6617,-868 9980,-4339 10305,-10305 v -7810 l 8136,-7702 v 17248 c -326,5966 -3797,9437 -10306,10305 z"
   id="path31"
   style="fill:url(#id2)"
   inkscape:connector-curvature="0" />
    <path
   class="fil3"
   d="m 104924,39376 7594,7268 h 9003 c 6617,868 9980,4339 10305,10305 v 8027 l 2170,2061 V 49790 c -326,-5966 -3797,-9437 -10306,-10305 z"
   id="path33"
   style="fill:url(#id1)"
   inkscape:connector-curvature="0" />
   </g>
   
   
   
   
   
   
   
   
   
   
   
   
   
   
   
   
   
   
   
   
   
   
   
   
   
   
   
   
   
   
   
   
   
   <path
   class="fil7"
   d="m 277266,21281 v -254 h 4007 v 254 h -338 c -384,0 -661,113 -835,336 -111,148 -167,501 -167,1061 v 4576 c 0,704 -78,1275 -231,1710 -152,438 -416,819 -792,1143 -374,325 -828,487 -1360,487 -428,0 -766,-106 -1013,-320 -247,-214 -372,-458 -372,-734 0,-225 57,-395 172,-510 150,-143 324,-214 527,-214 146,0 275,47 392,144 116,96 264,352 440,769 106,247 240,371 405,371 122,0 237,-75 346,-228 105,-150 159,-421 159,-807 v -6387 c 0,-473 -30,-786 -89,-936 -45,-115 -141,-214 -289,-297 -198,-110 -405,-164 -626,-164 z"
   id="path72"
   inkscape:connector-curvature="0"
   style="fill:#303030;fill-rule:nonzero" />
   <path
   id="path74"
   class="fil7"
   d="m 288106,21281 v -254 h 3287 v 254 h -350 c -367,0 -649,153 -847,461 -96,143 -143,472 -143,992 v 3791 c 0,939 -92,1666 -278,2183 -185,517 -552,962 -1096,1331 -543,369 -1281,555 -2217,555 -1019,0 -1793,-176 -2319,-531 -529,-353 -903,-831 -1122,-1428 -148,-409 -221,-1176 -221,-2302 v -3655 c 0,-574 -80,-950 -238,-1129 -157,-179 -414,-268 -766,-268 h -351 v -254 h 4036 v 254 h -358 c -385,0 -660,122 -825,364 -115,165 -172,511 -172,1033 v 4076 c 0,362 33,778 99,1248 68,468 188,833 362,1096 177,261 428,478 755,649 329,170 732,254 1209,254 611,0 1159,-134 1642,-399 482,-266 811,-610 987,-1023 177,-417 266,-1122 266,-2115 v -3786 c 0,-583 -63,-948 -193,-1094 -179,-202 -444,-303 -797,-303 z"
   inkscape:connector-curvature="0"
   style="fill:#303030;fill-rule:nonzero" />
   <path
   id="path76"
   class="fil7"
   d="m 298028,20815 v 3232 h -254 c -82,-621 -230,-1115 -445,-1482 -214,-367 -519,-659 -917,-875 -395,-216 -804,-325 -1227,-325 -480,0 -875,146 -1188,438 -313,292 -470,625 -470,997 0,285 98,546 296,781 287,343 964,804 2037,1378 874,470 1472,830 1792,1080 320,251 566,545 738,886 172,341 259,696 259,1070 0,708 -275,1317 -823,1830 -551,513 -1259,769 -2122,769 -272,0 -526,-21 -766,-63 -144,-24 -438,-109 -887,-254 -447,-146 -731,-219 -851,-219 -116,0 -207,35 -273,103 -66,71 -115,214 -148,433 h -254 v -3203 h 254 c 120,670 280,1173 482,1505 202,334 512,612 929,830 416,221 872,332 1369,332 573,0 1030,-153 1361,-456 334,-306 501,-666 501,-1080 0,-230 -63,-463 -188,-698 -127,-236 -322,-454 -588,-659 -179,-139 -670,-430 -1472,-877 -802,-445 -1374,-802 -1712,-1068 -339,-266 -598,-562 -772,-882 -176,-322 -263,-677 -263,-1063 0,-670 259,-1249 774,-1733 515,-485 1173,-727 1968,-727 499,0 1026,122 1583,365 259,115 440,171 546,171 120,0 218,-35 294,-105 75,-73 136,-215 183,-431 z"
   inkscape:connector-curvature="0"
   style="fill:#303030;fill-rule:nonzero" />
   <path
   id="path78"
   class="fil7"
   d="m 307569,21027 99,2199 h -261 c -52,-386 -120,-663 -207,-828 -143,-266 -331,-463 -569,-588 -237,-127 -548,-191 -934,-191 h -1317 v 7141 c 0,576 61,936 186,1079 174,193 442,289 804,289 h 323 v 254 h -3980 v -254 h 337 c 399,0 682,-120 851,-359 101,-149 153,-485 153,-1009 v -7141 h -1122 c -437,0 -748,33 -931,97 -240,87 -442,254 -614,503 -169,247 -271,583 -303,1007 h -262 l 99,-2199 z"
   inkscape:connector-curvature="0"
   style="fill:#303030;fill-rule:nonzero" />
   <path
   id="path80"
   class="fil7"
   d="m 312379,30128 v 254 h -4008 v -254 h 332 c 388,0 668,-112 844,-336 111,-148 165,-501 165,-1061 v -6053 c 0,-473 -31,-786 -89,-936 -47,-115 -142,-214 -285,-297 -202,-110 -414,-164 -635,-164 h -332 v -254 h 4008 v 254 h -336 c -381,0 -659,113 -833,336 -115,148 -172,501 -172,1061 v 6053 c 0,473 31,786 90,936 44,116 141,214 289,297 198,110 405,164 626,164 z"
   inkscape:connector-curvature="0"
   style="fill:#303030;fill-rule:nonzero" />
   <path
   id="path82"
   class="fil7"
   d="m 321213,20815 211,3175 h -211 c -285,-950 -690,-1637 -1216,-2053 -527,-419 -1158,-628 -1896,-628 -616,0 -1176,158 -1674,473 -499,315 -892,816 -1179,1507 -284,689 -428,1548 -428,2573 0,847 134,1581 405,2202 270,620 677,1095 1218,1427 543,332 1162,496 1856,496 604,0 1138,-129 1599,-388 463,-258 971,-773 1524,-1545 l 214,141 c -468,830 -1014,1437 -1637,1823 -623,383 -1364,576 -2220,576 -1545,0 -2742,-574 -3589,-1724 -633,-856 -950,-1862 -950,-3020 0,-933 209,-1792 625,-2572 417,-784 990,-1388 1720,-1818 731,-431 1528,-645 2394,-645 672,0 1336,165 1992,496 190,101 329,153 411,153 123,0 231,-44 323,-131 119,-125 204,-297 254,-518 z m -3641,9567 h 414 l -344,553 c 290,73 506,195 647,369 144,174 214,384 214,631 0,329 -139,618 -414,867 -275,250 -632,374 -1067,374 -172,0 -389,-16 -650,-47 v -291 c 130,19 240,28 332,28 238,0 435,-78 597,-230 163,-156 243,-332 243,-530 0,-136 -54,-256 -160,-357 -106,-101 -238,-153 -393,-153 -47,0 -108,5 -181,14 z"
   inkscape:connector-curvature="0"
   style="fill:#303030;fill-rule:nonzero" />
   <path
   id="path84"
   class="fil7"
   d="m 328595,27264 h -3624 l -626,1465 c -155,362 -235,635 -235,814 0,141 68,268 205,376 134,106 428,177 877,209 v 254 h -2949 v -254 c 390,-68 642,-157 757,-268 235,-221 494,-670 778,-1345 l 3291,-7700 h 232 l 3253,7782 c 261,626 499,1030 713,1219 214,185 510,289 893,312 v 254 h -3687 v -254 c 371,-18 623,-80 755,-185 131,-106 195,-236 195,-388 0,-203 -92,-523 -275,-960 z m -212,-508 -1575,-3775 -1619,3775 z"
   inkscape:connector-curvature="0"
   style="fill:#303030;fill-rule:nonzero" />
   <path
   id="path86"
   class="fil7"
   d="m 337962,21535 v 3669 h 1694 c 392,0 682,-85 863,-254 183,-172 303,-513 364,-1030 h 254 v 3175 h -254 c -4,-363 -51,-631 -141,-800 -92,-172 -216,-299 -376,-383 -160,-87 -395,-130 -710,-130 h -1694 v 2949 c 0,473 31,786 90,936 44,116 141,214 287,297 200,110 409,164 630,164 h 334 v 254 h -4008 v -254 h 332 c 388,0 668,-112 844,-336 111,-148 165,-501 165,-1061 v -6053 c 0,-473 -31,-786 -89,-936 -48,-115 -142,-214 -285,-297 -198,-110 -409,-164 -635,-164 h -332 v -254 h 6943 l 99,2060 h -240 c -120,-440 -259,-762 -416,-967 -160,-204 -356,-355 -586,-446 -233,-92 -590,-139 -1077,-139 z"
   inkscape:connector-curvature="0"
   style="fill:#303030;fill-rule:nonzero" />
   <path
   id="path88"
   class="fil7"
   d="m 345867,21535 v 3697 h 2060 c 534,0 889,-80 1068,-240 240,-212 371,-583 400,-1115 h 254 v 3260 h -254 c -64,-456 -130,-750 -193,-880 -83,-160 -219,-287 -407,-378 -188,-92 -477,-139 -868,-139 h -2060 v 3086 c 0,413 19,665 54,754 38,90 101,163 193,214 92,55 268,80 524,80 h 1583 c 527,0 910,-37 1150,-110 238,-73 468,-219 687,-435 284,-285 576,-715 875,-1289 h 282 l -807,2342 h -7208 v -254 h 332 c 221,0 430,-54 627,-159 149,-73 250,-184 301,-332 55,-148 80,-449 80,-906 v -6081 c 0,-593 -58,-958 -178,-1094 -167,-183 -442,-275 -830,-275 h -332 v -254 h 7211 l 98,2060 h -268 c -96,-496 -202,-837 -320,-1023 -117,-186 -291,-327 -519,-426 -184,-68 -508,-103 -972,-103 z"
   inkscape:connector-curvature="0"
   style="fill:#303030;fill-rule:nonzero" />
   <path
   id="path90"
   class="fil7"
   d="m 351777,30382 v -254 h 351 c 395,0 674,-127 839,-378 101,-151 151,-492 151,-1019 v -6053 c 0,-583 -64,-948 -193,-1094 -179,-202 -445,-303 -797,-303 h -351 v -254 h 3803 c 1397,0 2460,157 3187,475 729,317 1314,847 1757,1587 444,741 665,1597 665,2566 0,1303 -395,2390 -1185,3265 -887,976 -2237,1462 -4052,1462 z m 2667,-686 c 583,129 1070,193 1465,193 1063,0 1945,-374 2648,-1125 701,-748 1052,-1764 1052,-3045 0,-1291 -351,-2310 -1052,-3053 -703,-746 -1603,-1117 -2704,-1117 -412,0 -882,66 -1409,200 z"
   inkscape:connector-curvature="0"
   style="fill:#303030;fill-rule:nonzero" />
   <path
   id="path92"
   class="fil7"
   d="m 364677,21535 v 3697 h 2060 c 534,0 889,-80 1068,-240 240,-212 372,-583 400,-1115 h 254 v 3260 h -254 c -64,-456 -130,-750 -193,-880 -82,-160 -219,-287 -407,-378 -188,-92 -477,-139 -868,-139 h -2060 v 3086 c 0,413 19,665 54,754 38,90 101,163 193,214 92,55 268,80 524,80 h 1583 c 527,0 910,-37 1150,-110 238,-73 468,-219 687,-435 285,-285 576,-715 875,-1289 h 282 l -807,2342 h -7208 v -254 h 332 c 221,0 430,-54 628,-159 148,-73 249,-184 301,-332 54,-148 80,-449 80,-906 v -6081 c 0,-593 -59,-958 -179,-1094 -167,-183 -442,-275 -830,-275 h -332 v -254 h 7211 l 99,2060 h -269 c -96,-496 -202,-837 -319,-1023 -118,-186 -292,-327 -520,-426 -184,-68 -508,-103 -972,-103 z"
   inkscape:connector-curvature="0"
   style="fill:#303030;fill-rule:nonzero" />
   <path
   id="path94"
   class="fil7"
   d="m 379891,30382 h -2505 l -3177,-4374 c -228,9 -414,14 -557,14 -59,0 -123,-2 -189,-5 -68,-2 -136,-4 -209,-9 v 2723 c 0,588 64,953 193,1094 174,202 435,303 783,303 h 365 v 254 h -4008 v -254 h 351 c 395,0 677,-129 846,-385 97,-141 144,-480 144,-1012 v -6053 c 0,-588 -64,-953 -193,-1094 -179,-202 -445,-303 -797,-303 h -351 v -254 h 3406 c 994,0 1726,73 2196,216 473,146 873,414 1200,802 329,388 494,852 494,1390 0,576 -189,1075 -562,1498 -377,424 -955,722 -1743,899 l 1935,2678 c 443,617 821,1028 1139,1230 315,205 729,332 1239,388 z m -6637,-4811 c 87,0 162,0 226,2 63,2 115,5 155,5 882,0 1548,-193 1995,-579 449,-388 672,-880 672,-1477 0,-583 -181,-1058 -541,-1425 -362,-365 -842,-548 -1437,-548 -263,0 -621,42 -1070,127 z"
   inkscape:connector-curvature="0"
   style="fill:#303030;fill-rule:nonzero" />
   <path
   id="path96"
   class="fil7"
   d="m 386225,27264 h -3625 l -625,1465 c -155,362 -235,635 -235,814 0,141 68,268 204,376 134,106 428,177 877,209 v 254 h -2949 v -254 c 391,-68 642,-157 758,-268 235,-221 493,-670 778,-1345 l 3290,-7700 h 233 l 3253,7782 c 261,626 498,1030 712,1219 214,185 511,289 894,312 v 254 h -3688 v -254 c 372,-18 624,-80 755,-185 132,-106 195,-236 195,-388 0,-203 -91,-523 -275,-960 z m -212,-508 -1576,-3775 -1618,3775 z"
   inkscape:connector-curvature="0"
   style="fill:#303030;fill-rule:nonzero" />
   <path
   id="path98"
   class="fil7"
   d="m 398050,27800 225,50 -804,2532 h -7239 v -254 h 351 c 395,0 677,-127 846,-383 97,-146 144,-484 144,-1014 v -6053 c 0,-583 -64,-948 -193,-1094 -179,-202 -445,-303 -797,-303 h -351 v -254 h 4233 v 254 c -496,-5 -844,40 -1046,136 -200,94 -336,217 -409,360 -73,146 -111,494 -111,1042 v 5898 c 0,384 38,645 111,788 54,99 141,170 256,217 113,44 473,68 1077,68 h 682 c 720,0 1223,-52 1512,-158 290,-106 555,-294 795,-562 238,-268 478,-691 718,-1270 z"
   inkscape:connector-curvature="0"
   style="fill:#303030;fill-rule:nonzero" />
   <path
   id="path100"
   class="fil7"
   d="m 275681,36655 h 2514 l 5731,7025 v -5402 c 0,-577 -66,-936 -195,-1080 -172,-193 -444,-289 -816,-289 h -329 v -254 h 3288 v 254 h -334 c -402,0 -685,120 -854,360 -101,148 -153,484 -153,1009 v 7883 h -249 l -6157,-7535 v 5762 c 0,576 63,936 188,1079 176,193 449,289 818,289 h 334 v 254 h -3288 v -254 h 330 c 404,0 689,-120 858,-359 101,-149 153,-485 153,-1009 v -6506 c -271,-317 -478,-526 -616,-627 -141,-102 -346,-196 -616,-285 -135,-40 -337,-61 -607,-61 z"
   inkscape:connector-curvature="0"
   style="fill:#303030;fill-rule:nonzero" />
   <path
   id="path102"
   class="fil7"
   d="m 291215,36443 c 1211,0 2262,461 3149,1383 889,922 1333,2072 1333,3453 0,1420 -447,2598 -1343,3537 -893,938 -1977,1406 -3250,1406 -1284,0 -2363,-459 -3238,-1373 -875,-915 -1313,-2098 -1313,-3552 0,-1484 506,-2695 1515,-3633 877,-814 1926,-1221 3147,-1221 z m -132,494 c -833,0 -1503,310 -2006,931 -628,774 -943,1905 -943,3396 0,1527 324,2703 976,3526 501,625 1159,938 1980,938 877,0 1599,-343 2171,-1028 571,-686 856,-1766 856,-3243 0,-1601 -315,-2796 -943,-3582 -504,-625 -1200,-938 -2091,-938 z"
   inkscape:connector-curvature="0"
   style="fill:#303030;fill-rule:nonzero" />
   <path
   id="path104"
   class="fil7"
   d="m 309322,46010 h -2505 l -3178,-4374 c -228,9 -413,14 -557,14 -59,0 -122,-2 -188,-5 -68,-2 -136,-4 -209,-9 v 2723 c 0,588 63,953 192,1094 175,202 436,303 784,303 h 364 v 254 h -4007 v -254 h 350 c 395,0 677,-129 847,-385 96,-141 143,-480 143,-1012 v -6053 c 0,-588 -63,-953 -193,-1094 -178,-202 -444,-303 -797,-303 h -350 v -254 h 3405 c 995,0 1726,73 2197,216 472,146 872,414 1199,802 329,388 494,852 494,1390 0,576 -188,1075 -562,1498 -376,424 -955,722 -1743,899 l 1936,2678 c 442,617 821,1028 1138,1230 315,205 729,332 1240,388 z m -6637,-4811 c 87,0 162,0 225,2 64,2 116,5 156,5 882,0 1547,-193 1994,-579 449,-388 673,-880 673,-1477 0,-583 -181,-1058 -541,-1425 -362,-365 -842,-548 -1437,-548 -264,0 -621,42 -1070,127 z"
   inkscape:connector-curvature="0"
   style="fill:#303030;fill-rule:nonzero" />
   <path
   id="path106"
   class="fil7"
   d="m 313550,45756 v 254 h -4007 v -254 h 331 c 388,0 668,-112 845,-336 110,-148 164,-501 164,-1061 v -6053 c 0,-473 -30,-786 -89,-936 -47,-115 -141,-214 -285,-297 -202,-110 -414,-164 -635,-164 h -331 v -254 h 4007 v 254 h -336 c -381,0 -659,113 -833,336 -115,148 -171,501 -171,1061 v 6053 c 0,473 30,786 89,936 45,116 141,214 289,297 198,110 405,164 626,164 z"
   inkscape:connector-curvature="0"
   style="fill:#303030;fill-rule:nonzero" />
   <path
   id="path108"
   class="fil7"
   d="m 319044,36443 c 1211,0 2263,461 3149,1383 889,922 1334,2072 1334,3453 0,1420 -447,2598 -1343,3537 -894,938 -1978,1406 -3250,1406 -1285,0 -2364,-459 -3239,-1373 -875,-915 -1312,-2098 -1312,-3552 0,-1484 505,-2695 1514,-3633 878,-814 1926,-1221 3147,-1221 z m -132,494 c -832,0 -1502,310 -2006,931 -628,774 -943,1905 -943,3396 0,1527 325,2703 976,3526 501,625 1160,938 1980,938 878,0 1600,-343 2171,-1028 572,-686 856,-1766 856,-3243 0,-1601 -315,-2796 -943,-3582 -503,-625 -1199,-938 -2091,-938 z"
   inkscape:connector-curvature="0"
   style="fill:#303030;fill-rule:nonzero" />
   <path
   id="path110"
   class="fil7"
   d="m 336257,36443 240,2949 h -254 c -242,-731 -557,-1281 -941,-1653 -555,-534 -1267,-802 -2137,-802 -1186,0 -2089,470 -2707,1413 -518,793 -777,1741 -777,2839 0,892 172,1703 518,2439 343,734 795,1272 1352,1616 558,341 1131,512 1719,512 344,0 678,-44 1000,-131 320,-87 630,-217 929,-388 v -2712 c 0,-470 -35,-778 -106,-922 -73,-146 -183,-256 -332,-332 -150,-77 -413,-115 -790,-115 v -254 h 3613 v 254 h -172 c -357,0 -602,120 -736,360 -92,169 -137,506 -137,1009 v 2867 c -526,287 -1048,496 -1561,630 -515,134 -1087,200 -1715,200 -1804,0 -3172,-578 -4108,-1738 -704,-868 -1054,-1872 -1054,-3006 0,-823 198,-1613 593,-2366 468,-896 1110,-1587 1926,-2069 684,-400 1491,-600 2425,-600 338,0 646,28 924,82 277,57 670,177 1181,365 256,96 430,146 517,146 87,0 160,-40 223,-120 62,-80 99,-238 113,-473 z"
   inkscape:connector-curvature="0"
   style="fill:#303030;fill-rule:nonzero" />
   <path
   id="path112"
   class="fil7"
   d="m 347342,46010 h -2505 l -3178,-4374 c -228,9 -413,14 -557,14 -59,0 -122,-2 -188,-5 -68,-2 -136,-4 -209,-9 v 2723 c 0,588 63,953 192,1094 174,202 436,303 784,303 h 364 v 254 h -4007 v -254 h 350 c 395,0 677,-129 847,-385 96,-141 143,-480 143,-1012 v -6053 c 0,-588 -63,-953 -193,-1094 -178,-202 -444,-303 -797,-303 h -350 v -254 h 3405 c 995,0 1726,73 2197,216 472,146 872,414 1199,802 329,388 494,852 494,1390 0,576 -188,1075 -562,1498 -376,424 -955,722 -1743,899 l 1936,2678 c 442,617 821,1028 1138,1230 315,205 729,332 1240,388 z m -6637,-4811 c 87,0 162,0 225,2 64,2 116,5 156,5 882,0 1547,-193 1994,-579 449,-388 673,-880 673,-1477 0,-583 -181,-1058 -541,-1425 -363,-365 -842,-548 -1437,-548 -264,0 -621,42 -1070,127 z"
   inkscape:connector-curvature="0"
   style="fill:#303030;fill-rule:nonzero" />
   <path
   id="path114"
   class="fil7"
   d="m 353675,42892 h -3624 l -626,1465 c -155,362 -235,635 -235,814 0,141 68,268 205,376 134,106 428,177 877,209 v 254 h -2949 v -254 c 390,-68 642,-157 757,-268 235,-221 494,-670 778,-1345 l 3291,-7700 h 233 l 3252,7782 c 261,626 499,1030 713,1219 214,185 510,289 893,312 v 254 h -3687 v -254 c 371,-18 623,-80 755,-185 131,-106 195,-236 195,-388 0,-203 -92,-523 -275,-960 z m -212,-508 -1575,-3775 -1618,3775 z"
   inkscape:connector-curvature="0"
   style="fill:#303030;fill-rule:nonzero" />
   <path
   id="path116"
   class="fil7"
   d="m 357212,36655 h 2514 l 5732,7025 v -5402 c 0,-577 -66,-936 -195,-1080 -172,-193 -445,-289 -817,-289 h -329 v -254 h 3288 v 254 h -334 c -402,0 -684,120 -854,360 -101,148 -152,484 -152,1009 v 7883 h -250 l -6157,-7535 v 5762 c 0,576 64,936 188,1079 177,193 449,289 819,289 h 334 v 254 h -3288 v -254 h 329 c 405,0 689,-120 858,-359 102,-149 153,-485 153,-1009 v -6506 c -270,-317 -477,-526 -616,-627 -141,-102 -346,-196 -616,-285 -134,-40 -336,-61 -607,-61 z"
   inkscape:connector-curvature="0"
   style="fill:#303030;fill-rule:nonzero" />
   <path
   id="path118"
   class="fil7"
   d="m 367831,46010 v -254 h 350 c 395,0 675,-127 840,-378 101,-151 150,-492 150,-1019 v -6053 c 0,-583 -63,-948 -192,-1094 -179,-202 -445,-303 -798,-303 h -350 v -254 h 3803 c 1397,0 2460,157 3186,475 730,317 1315,847 1757,1587 445,741 666,1597 666,2566 0,1303 -395,2390 -1185,3265 -887,976 -2237,1462 -4053,1462 z m 2667,-686 c 583,129 1070,193 1465,193 1063,0 1945,-374 2648,-1125 701,-748 1051,-1764 1051,-3045 0,-1291 -350,-2310 -1051,-3053 -703,-746 -1604,-1117 -2704,-1117 -412,0 -882,66 -1409,200 z"
   inkscape:connector-curvature="0"
   style="fill:#303030;fill-rule:nonzero" />
   <path
   id="path120"
   class="fil7"
   d="m 380731,37163 v 3697 h 2060 c 534,0 889,-80 1068,-240 240,-212 371,-583 399,-1115 h 254 v 3260 h -254 c -63,-456 -129,-750 -192,-880 -83,-160 -219,-287 -407,-378 -188,-92 -478,-139 -868,-139 h -2060 v 3086 c 0,413 19,665 54,754 37,90 101,163 193,214 91,55 268,80 524,80 h 1583 c 527,0 910,-37 1150,-110 237,-73 468,-219 687,-435 284,-285 576,-715 875,-1289 h 282 l -807,2342 h -7208 v -254 h 331 c 221,0 431,-54 628,-159 148,-73 250,-184 301,-332 54,-148 80,-449 80,-906 v -6081 c 0,-593 -59,-958 -178,-1094 -167,-183 -443,-275 -831,-275 h -331 v -254 h 7210 l 99,2060 h -268 c -96,-496 -202,-837 -320,-1023 -117,-186 -291,-327 -519,-426 -184,-68 -508,-103 -972,-103 z"
   inkscape:connector-curvature="0"
   style="fill:#303030;fill-rule:nonzero" />
   <path
   id="path122"
   class="fil7"
   d="m 390169,46010 v -254 h 350 c 395,0 675,-127 840,-378 101,-151 150,-492 150,-1019 v -6053 c 0,-583 -63,-948 -193,-1094 -178,-202 -444,-303 -797,-303 h -350 v -254 h 3803 c 1397,0 2460,157 3186,475 729,317 1315,847 1757,1587 445,741 666,1597 666,2566 0,1303 -395,2390 -1186,3265 -886,976 -2236,1462 -4052,1462 z m 2667,-686 c 583,129 1070,193 1465,193 1063,0 1945,-374 2648,-1125 701,-748 1051,-1764 1051,-3045 0,-1291 -350,-2310 -1051,-3053 -703,-746 -1604,-1117 -2705,-1117 -411,0 -882,66 -1408,200 z"
   inkscape:connector-curvature="0"
   style="fill:#303030;fill-rule:nonzero" />
   <path
   id="path124"
   class="fil7"
   d="m 405275,36443 c 1211,0 2262,461 3149,1383 889,922 1333,2072 1333,3453 0,1420 -447,2598 -1343,3537 -893,938 -1978,1406 -3250,1406 -1284,0 -2364,-459 -3238,-1373 -875,-915 -1313,-2098 -1313,-3552 0,-1484 506,-2695 1515,-3633 877,-814 1926,-1221 3147,-1221 z m -132,494 c -833,0 -1503,310 -2006,931 -628,774 -943,1905 -943,3396 0,1527 324,2703 976,3526 501,625 1159,938 1980,938 877,0 1599,-343 2171,-1028 571,-686 856,-1766 856,-3243 0,-1601 -315,-2796 -943,-3582 -504,-625 -1200,-938 -2091,-938 z"
   inkscape:connector-curvature="0"
   style="fill:#303030;fill-rule:nonzero" />
   <path
   id="path126"
   class="fil7"
   d="m 413649,36655 h 2515 l 5731,7025 v -5402 c 0,-577 -66,-936 -195,-1080 -172,-193 -445,-289 -816,-289 h -329 v -254 h 3287 v 254 h -334 c -402,0 -684,120 -853,360 -101,148 -153,484 -153,1009 v 7883 h -249 l -6158,-7535 v 5762 c 0,576 64,936 189,1079 176,193 449,289 818,289 h 334 v 254 h -3288 v -254 h 329 c 405,0 689,-120 859,-359 101,-149 153,-485 153,-1009 v -6506 c -271,-317 -478,-526 -617,-627 -141,-102 -345,-196 -616,-285 -134,-40 -336,-61 -607,-61 z"
   inkscape:connector-curvature="0"
   style="fill:#303030;fill-rule:nonzero" />
   <path
   id="path128"
   class="fil7"
   d="m 429183,36443 c 1212,0 2263,461 3150,1383 889,922 1333,2072 1333,3453 0,1420 -447,2598 -1343,3537 -894,938 -1978,1406 -3250,1406 -1284,0 -2364,-459 -3239,-1373 -874,-915 -1312,-2098 -1312,-3552 0,-1484 506,-2695 1515,-3633 877,-814 1926,-1221 3146,-1221 z m -131,494 c -833,0 -1503,310 -2006,931 -628,774 -943,1905 -943,3396 0,1527 324,2703 976,3526 500,625 1159,938 1980,938 877,0 1599,-343 2171,-1028 571,-686 856,-1766 856,-3243 0,-1601 -316,-2796 -943,-3582 -504,-625 -1200,-938 -2091,-938 z"
   inkscape:connector-curvature="0"
   style="fill:#303030;fill-rule:nonzero" />
   <path
   id="path130"
   class="fil7"
   d="m 443763,46010 h -2505 l -3178,-4374 c -228,9 -413,14 -557,14 -59,0 -122,-2 -188,-5 -68,-2 -136,-4 -209,-9 v 2723 c 0,588 63,953 192,1094 175,202 436,303 784,303 h 364 v 254 h -4007 v -254 h 350 c 395,0 677,-129 847,-385 96,-141 143,-480 143,-1012 v -6053 c 0,-588 -63,-953 -193,-1094 -178,-202 -444,-303 -797,-303 h -350 v -254 h 3405 c 995,0 1726,73 2197,216 472,146 872,414 1199,802 329,388 494,852 494,1390 0,576 -188,1075 -562,1498 -376,424 -955,722 -1743,899 l 1936,2678 c 442,617 821,1028 1138,1230 315,205 729,332 1240,388 z m -6637,-4811 c 87,0 162,0 225,2 64,2 116,5 156,5 882,0 1547,-193 1994,-579 449,-388 673,-880 673,-1477 0,-583 -181,-1058 -541,-1425 -362,-365 -842,-548 -1437,-548 -264,0 -621,42 -1070,127 z"
   inkscape:connector-curvature="0"
   style="fill:#303030;fill-rule:nonzero" />
   <path
   id="path132"
   class="fil7"
   d="m 450955,36655 98,2199 h -261 c -52,-386 -120,-663 -207,-828 -143,-266 -331,-463 -569,-588 -237,-127 -548,-191 -934,-191 h -1317 v 7141 c 0,576 62,936 186,1079 174,193 442,289 805,289 h 322 v 254 h -3980 v -254 h 337 c 400,0 682,-120 851,-359 101,-149 153,-485 153,-1009 v -7141 h -1122 c -437,0 -748,33 -931,97 -240,87 -442,254 -614,503 -169,247 -270,583 -303,1007 h -261 l 98,-2199 z"
   inkscape:connector-curvature="0"
   style="fill:#303030;fill-rule:nonzero" />
   <path
   id="path134"
   class="fil7"
   d="m 454353,37163 v 3697 h 2060 c 534,0 889,-80 1068,-240 240,-212 371,-583 400,-1115 h 254 v 3260 h -254 c -64,-456 -130,-750 -193,-880 -82,-160 -219,-287 -407,-378 -188,-92 -477,-139 -868,-139 h -2060 v 3086 c 0,413 19,665 54,754 38,90 101,163 193,214 92,55 268,80 524,80 h 1583 c 527,0 910,-37 1150,-110 238,-73 468,-219 687,-435 284,-285 576,-715 875,-1289 h 282 l -807,2342 h -7208 v -254 h 332 c 221,0 430,-54 627,-159 149,-73 250,-184 302,-332 54,-148 79,-449 79,-906 v -6081 c 0,-593 -58,-958 -178,-1094 -167,-183 -442,-275 -830,-275 h -332 v -254 h 7211 l 98,2060 h -268 c -96,-496 -202,-837 -319,-1023 -118,-186 -292,-327 -520,-426 -184,-68 -508,-103 -972,-103 z"
   inkscape:connector-curvature="0"
   style="fill:#303030;fill-rule:nonzero" />
   <path
   class="fil6"
   d="m 187773,18250 h 6992 v 20447 c 0,3070 -945,5525 -2836,7345 -1884,1828 -4304,2738 -7253,2745 -3394,-7 -6075,-819 -8051,-2441 -1982,-1630 -2935,-3994 -2864,-7091 l 63,-127 h 6823 c 0,1474 367,2561 1115,3245 741,692 1714,1038 2914,1038 910,0 1651,-417 2229,-1249 579,-840 868,-1990 868,-3465 z"
   id="path136"
   inkscape:connector-curvature="0"
   style="fill:#000000;fill-rule:nonzero" />
   <polygon
   id="polygon138"
   class="fil6"
   points="203870,36235 203870,48349 196885,48349 196885,18250 216994,18250 216994,23627 203870,23627 203870,30859 214891,30859 214891,36235 "
   style="fill:#000000;fill-rule:nonzero" />
   <path
   id="path140"
   class="fil6"
   d="m 224864,36814 v 11535 h -6985 V 18250 h 10478 c 3485,0 6251,812 8290,2420 2039,1616 3062,3818 3062,6619 0,1552 -416,2892 -1235,4007 -818,1115 -2025,2025 -3626,2731 1848,522 3175,1390 3979,2610 804,1221 1207,2738 1207,4558 v 1905 c 0,783 120,1679 352,2688 240,1002 642,1722 1221,2145 v 416 h -7211 c -550,-430 -910,-1178 -1079,-2250 -163,-1080 -247,-2089 -247,-3041 v -1821 c 0,-1432 -381,-2525 -1136,-3287 -755,-755 -1870,-1136 -3330,-1136 z m 0,-5377 h 3535 c 1404,0 2484,-317 3224,-959 748,-642 1115,-1560 1115,-2759 0,-1228 -381,-2215 -1143,-2963 -769,-755 -1848,-1129 -3238,-1129 h -3493 z"
   inkscape:connector-curvature="0"
   style="fill:#000000;fill-rule:nonzero" />
   <polygon
   id="polygon142"
   class="fil6"
   points="267335,18250 267335,48349 260364,48349 249350,29412 249223,29455 249223,48349 242238,48349 242238,18250 249223,18250 260244,37166 260364,37124 260364,18250 "
   style="fill:#000000;fill-rule:nonzero" />
  </g>
 </g>
</svg>